<svg width="307" height="117" viewBox="0 0 307 117" fill="none" xmlns="http://www.w3.org/2000/svg">
<path d="M69.3822 0.0625796C74.6122 -0.64742 78.3321 4.82258 75.7921 9.44258C74.7021 11.4226 72.5822 12.0226 71.0822 13.6726C64.6222 20.7926 70.5022 32.5626 80.1022 31.7826C84.0222 31.4626 86.1822 27.9126 90.3922 30.2726C93.4922 32.0126 94.2622 36.3126 92.0222 39.0726C91.2122 40.0626 90.1422 40.5826 89.0722 41.2426C70.0822 52.9026 50.1622 63.2626 30.9022 74.4326C4.36216 83.5126 -12.5978 48.3526 11.7722 33.1426C29.9522 21.8026 49.1522 11.9826 67.3822 0.712573C67.9922 0.472573 68.7422 0.15258 69.3822 0.0625796Z" fill="white"/>
<path fill-rule="evenodd" clip-rule="evenodd" d="M97.6922 41.1026C119.612 39.5026 130.572 66.8626 114.042 81.2626C94.6722 93.4726 74.4922 104.463 54.8022 116.193C48.7322 118.943 43.6122 113.753 46.5022 107.563C47.4922 105.433 49.4122 105.083 50.8922 103.513C57.8322 96.1526 50.9922 83.5326 40.9222 85.4326C37.6022 86.0626 35.8322 88.6326 32.1322 86.6826C28.4722 84.7626 27.5322 80.2226 30.6922 77.3626C49.6022 65.8626 69.0822 55.2126 88.1822 44.0026C91.1222 42.4026 94.3422 41.3426 97.6922 41.1026ZM64.1322 98.4627L105.232 74.6026C118.272 66.2126 109.172 47.5726 94.8722 52.5026L52.4622 76.7826L56.2622 79.4426C61.8722 84.0826 64.6822 91.1927 64.1322 98.4627Z" fill="white"/>
<path d="M141.51 72.4326V33.9526H149.206V49.8646H154.302L162.206 33.9526H170.422L160.438 53.2966L170.734 72.4326H162.518L154.302 56.8326H149.206V72.4326H141.51Z" fill="white"/>
<path d="M181.838 72.5366C179.862 72.5366 178.215 72.2246 176.898 71.6006C175.615 70.9419 174.662 69.9539 174.038 68.6366C173.414 67.2846 173.102 65.5513 173.102 63.4366V32.7566H180.798V62.2926C180.798 63.3326 180.902 64.1646 181.11 64.7886C181.318 65.3779 181.63 65.8113 182.046 66.0886C182.496 66.3659 183.051 66.5566 183.71 66.6606L185.842 66.9726V72.5366H181.838Z" fill="white"/>
<path d="M199.803 72.6926C197.515 72.6926 195.556 72.4673 193.927 72.0166C192.297 71.5313 190.963 70.7339 189.923 69.6246C188.917 68.5153 188.172 67.0419 187.687 65.2046C187.236 63.3673 187.011 61.0966 187.011 58.3926C187.011 55.5499 187.236 53.2099 187.687 51.3726C188.172 49.5006 188.917 48.0446 189.923 47.0046C190.963 45.9299 192.297 45.1846 193.927 44.7686C195.591 44.3179 197.549 44.0926 199.803 44.0926C202.125 44.0926 204.101 44.3179 205.731 44.7686C207.36 45.2193 208.677 45.9819 209.683 47.0566C210.723 48.0966 211.468 49.5526 211.919 51.4246C212.404 53.2619 212.647 55.5846 212.647 58.3926C212.647 61.1659 212.421 63.4886 211.971 65.3606C211.52 67.1979 210.792 68.6539 209.787 69.7286C208.781 70.8033 207.447 71.5659 205.783 72.0166C204.153 72.4673 202.16 72.6926 199.803 72.6926ZM199.803 66.5566C200.739 66.5566 201.519 66.4699 202.143 66.2966C202.801 66.1233 203.321 65.7766 203.703 65.2566C204.119 64.7019 204.431 63.8699 204.639 62.7606C204.847 61.6513 204.951 60.1953 204.951 58.3926C204.951 56.5553 204.847 55.0993 204.639 54.0246C204.431 52.9153 204.119 52.1006 203.703 51.5806C203.321 51.0259 202.801 50.6619 202.143 50.4886C201.519 50.3153 200.739 50.2286 199.803 50.2286C198.901 50.2286 198.121 50.3153 197.463 50.4886C196.839 50.6619 196.319 51.0259 195.903 51.5806C195.487 52.1006 195.175 52.9153 194.967 54.0246C194.793 55.0993 194.707 56.5553 194.707 58.3926C194.707 60.1953 194.793 61.6513 194.967 62.7606C195.175 63.8699 195.487 64.7019 195.903 65.2566C196.319 65.7766 196.839 66.1233 197.463 66.2966C198.121 66.4699 198.901 66.5566 199.803 66.5566Z" fill="white"/>
<path d="M228.153 72.6926C225.865 72.6926 223.906 72.4673 222.277 72.0166C220.647 71.5313 219.313 70.7339 218.273 69.6246C217.267 68.5153 216.522 67.0419 216.037 65.2046C215.586 63.3673 215.361 61.0966 215.361 58.3926C215.361 55.5499 215.586 53.2099 216.037 51.3726C216.522 49.5006 217.267 48.0446 218.273 47.0046C219.313 45.9299 220.647 45.1846 222.277 44.7686C223.941 44.3179 225.899 44.0926 228.153 44.0926C230.475 44.0926 232.451 44.3179 234.081 44.7686C235.71 45.2193 237.027 45.9819 238.033 47.0566C239.073 48.0966 239.818 49.5526 240.269 51.4246C240.754 53.2619 240.997 55.5846 240.997 58.3926C240.997 61.1659 240.771 63.4886 240.321 65.3606C239.87 67.1979 239.142 68.6539 238.137 69.7286C237.131 70.8033 235.797 71.5659 234.133 72.0166C232.503 72.4673 230.51 72.6926 228.153 72.6926ZM228.153 66.5566C229.089 66.5566 229.869 66.4699 230.493 66.2966C231.151 66.1233 231.671 65.7766 232.053 65.2566C232.469 64.7019 232.781 63.8699 232.989 62.7606C233.197 61.6513 233.301 60.1953 233.301 58.3926C233.301 56.5553 233.197 55.0993 232.989 54.0246C232.781 52.9153 232.469 52.1006 232.053 51.5806C231.671 51.0259 231.151 50.6619 230.493 50.4886C229.869 50.3153 229.089 50.2286 228.153 50.2286C227.251 50.2286 226.471 50.3153 225.813 50.4886C225.189 50.6619 224.669 51.0259 224.253 51.5806C223.837 52.1006 223.525 52.9153 223.317 54.0246C223.143 55.0993 223.057 56.5553 223.057 58.3926C223.057 60.1953 223.143 61.6513 223.317 62.7606C223.525 63.8699 223.837 64.7019 224.253 65.2566C224.669 65.7766 225.189 66.1233 225.813 66.2966C226.471 66.4699 227.251 66.5566 228.153 66.5566Z" fill="white"/>
<path d="M244.907 72.4326V33.9526H260.039C263.852 33.9526 266.626 34.8366 268.359 36.6046C270.127 38.3379 271.011 40.8166 271.011 44.0406C271.011 45.5659 270.786 46.9179 270.335 48.0966C269.919 49.2406 269.312 50.1939 268.515 50.9566C267.718 51.6846 266.764 52.1873 265.655 52.4646C266.487 52.6726 267.284 53.0019 268.047 53.4526C268.844 53.9033 269.555 54.5099 270.179 55.2726C270.838 56.0353 271.34 56.9713 271.687 58.0806C272.068 59.1553 272.259 60.4033 272.259 61.8246C272.259 64.4246 271.808 66.5046 270.907 68.0646C270.04 69.6246 268.74 70.7513 267.007 71.4446C265.308 72.1033 263.211 72.4326 260.715 72.4326H244.907ZM252.603 65.5166H260.507C261.408 65.5166 262.188 65.3433 262.847 64.9966C263.506 64.6499 264.008 64.1126 264.355 63.3846C264.736 62.6566 264.927 61.6859 264.927 60.4726C264.927 59.4673 264.736 58.6179 264.355 57.9246C263.974 57.2313 263.454 56.6939 262.795 56.3126C262.136 55.9313 261.374 55.7406 260.507 55.7406H252.603V65.5166ZM252.603 49.8126H260.091C261.2 49.8126 262.067 49.4139 262.691 48.6166C263.35 47.7846 263.679 46.7099 263.679 45.3926C263.714 43.6939 263.367 42.5153 262.639 41.8566C261.911 41.1979 261.027 40.8686 259.987 40.8686H252.603V49.8126Z" fill="white"/>
<path d="M275.948 72.4326V33.9526H291.86C293.386 33.9526 294.807 34.1433 296.124 34.5246C297.442 34.8713 298.603 35.4953 299.608 36.3966C300.614 37.2979 301.394 38.5459 301.948 40.1406C302.538 41.7353 302.832 43.7806 302.832 46.2766C302.832 48.0446 302.659 49.5526 302.312 50.8006C301.966 52.0486 301.498 53.0713 300.908 53.8686C300.354 54.6659 299.712 55.3073 298.984 55.7926C298.256 56.2779 297.511 56.6766 296.748 56.9886L303.924 72.4326H296.072L289.884 58.1846C289.468 58.1846 288.983 58.1846 288.428 58.1846C287.908 58.1499 287.371 58.1326 286.816 58.1326C286.262 58.1326 285.707 58.1326 285.152 58.1326C284.598 58.1326 284.095 58.1153 283.644 58.0806V72.4326H275.948ZM283.644 51.9966H290.508C291.202 51.9966 291.826 51.9099 292.38 51.7366C292.935 51.5633 293.42 51.2686 293.836 50.8526C294.252 50.4019 294.564 49.8126 294.772 49.0846C295.015 48.3566 295.136 47.4206 295.136 46.2766C295.136 45.2019 295.015 44.3179 294.772 43.6246C294.564 42.8966 294.252 42.3419 293.836 41.9606C293.42 41.5446 292.935 41.2673 292.38 41.1286C291.826 40.9553 291.202 40.8686 290.508 40.8686H283.644V51.9966Z" fill="white"/>
<path d="M141.337 89.4326V78.3926H145.732C146.052 78.3926 146.377 78.4376 146.707 78.5276C147.047 78.6076 147.362 78.7726 147.652 79.0226C147.942 79.2626 148.172 79.6176 148.342 80.0876C148.522 80.5476 148.612 81.1576 148.612 81.9176C148.612 82.6976 148.517 83.3276 148.327 83.8076C148.147 84.2776 147.907 84.6426 147.607 84.9026C147.317 85.1526 147.002 85.3226 146.662 85.4126C146.322 85.5026 145.992 85.5476 145.672 85.5476C145.522 85.5476 145.302 85.5426 145.012 85.5326C144.722 85.5226 144.412 85.5126 144.082 85.5026C143.762 85.4826 143.462 85.4626 143.182 85.4426C142.902 85.4226 142.687 85.4076 142.537 85.3976V89.4326H141.337ZM142.537 84.4826H145.522C145.872 84.4826 146.192 84.4076 146.482 84.2576C146.772 84.1076 146.997 83.8476 147.157 83.4776C147.327 83.1076 147.412 82.5926 147.412 81.9326C147.412 81.2826 147.327 80.7826 147.157 80.4326C146.997 80.0726 146.782 79.8226 146.512 79.6826C146.242 79.5426 145.947 79.4726 145.627 79.4726H142.537V84.4826Z" fill="white"/>
<path d="M152.31 89.5226C151.54 89.5226 150.945 89.3226 150.525 88.9226C150.115 88.5226 149.91 87.9026 149.91 87.0626V81.4226H151.095V86.7626C151.095 87.4326 151.245 87.8876 151.545 88.1276C151.855 88.3576 152.285 88.4726 152.835 88.4726C153.305 88.4726 153.735 88.4076 154.125 88.2776C154.515 88.1376 154.915 87.9476 155.325 87.7076V81.4226H156.51V89.4326H155.58L155.325 88.5476C154.915 88.8076 154.45 89.0376 153.93 89.2376C153.42 89.4276 152.88 89.5226 152.31 89.5226Z" fill="white"/>
<path d="M162.148 89.5226C161.768 89.5226 161.413 89.4776 161.083 89.3876C160.763 89.2876 160.468 89.1726 160.198 89.0426C159.928 88.9026 159.688 88.7626 159.478 88.6226L159.253 89.4326H158.293V77.9876H159.478V82.1576C159.858 81.9376 160.288 81.7426 160.768 81.5726C161.248 81.4026 161.693 81.3176 162.103 81.3176C162.743 81.3176 163.273 81.4526 163.693 81.7226C164.113 81.9926 164.428 82.4326 164.638 83.0426C164.858 83.6526 164.968 84.4676 164.968 85.4876C164.968 86.3176 164.873 87.0376 164.683 87.6476C164.493 88.2476 164.188 88.7126 163.768 89.0426C163.358 89.3626 162.818 89.5226 162.148 89.5226ZM161.773 88.5326C162.213 88.5326 162.578 88.4226 162.868 88.2026C163.168 87.9726 163.393 87.6276 163.543 87.1676C163.703 86.7076 163.783 86.1326 163.783 85.4426C163.783 84.5626 163.693 83.9026 163.513 83.4626C163.343 83.0126 163.108 82.7076 162.808 82.5476C162.508 82.3876 162.163 82.3076 161.773 82.3076C161.323 82.3076 160.918 82.3726 160.558 82.5026C160.208 82.6226 159.848 82.7826 159.478 82.9826V87.8876C159.788 88.0376 160.128 88.1826 160.498 88.3226C160.878 88.4626 161.303 88.5326 161.773 88.5326Z" fill="white"/>
<path d="M168.615 89.4476C168.155 89.4476 167.77 89.3676 167.46 89.2076C167.15 89.0376 166.915 88.7676 166.755 88.3976C166.595 88.0176 166.515 87.5076 166.515 86.8676V77.9876H167.7V86.7176C167.7 87.1976 167.745 87.5626 167.835 87.8126C167.925 88.0526 168.055 88.2226 168.225 88.3226C168.395 88.4126 168.595 88.4726 168.825 88.5026L169.635 88.5926V89.4476H168.615Z" fill="white"/>
<path d="M170.654 79.9976C170.494 79.9976 170.414 79.9176 170.414 79.7576V78.5876C170.414 78.4276 170.494 78.3476 170.654 78.3476H171.494C171.574 78.3476 171.629 78.3726 171.659 78.4226C171.699 78.4626 171.719 78.5176 171.719 78.5876V79.7576C171.719 79.9176 171.644 79.9976 171.494 79.9976H170.654ZM170.474 89.4326V81.4226H171.659V89.4326H170.474Z" fill="white"/>
<path d="M176.256 89.5226C176.056 89.5226 175.811 89.5176 175.521 89.5076C175.231 89.4976 174.926 89.4826 174.606 89.4626C174.296 89.4426 174.011 89.4226 173.751 89.4026C173.501 89.3726 173.306 89.3426 173.166 89.3126V88.5926H176.451C176.781 88.5926 177.066 88.5676 177.306 88.5176C177.546 88.4676 177.731 88.3576 177.861 88.1876C178.001 88.0176 178.071 87.7626 178.071 87.4226V87.0626C178.071 86.7126 177.956 86.4426 177.726 86.2526C177.496 86.0526 177.126 85.9526 176.616 85.9526H175.491C175.021 85.9526 174.601 85.8926 174.231 85.7726C173.871 85.6526 173.591 85.4476 173.391 85.1576C173.191 84.8676 173.091 84.4676 173.091 83.9576V83.5376C173.091 83.0376 173.186 82.6276 173.376 82.3076C173.576 81.9876 173.881 81.7476 174.291 81.5876C174.711 81.4276 175.251 81.3476 175.911 81.3476C176.191 81.3476 176.511 81.3576 176.871 81.3776C177.241 81.3976 177.601 81.4276 177.951 81.4676C178.301 81.4976 178.586 81.5326 178.806 81.5726V82.2926H175.716C175.206 82.2926 174.811 82.3776 174.531 82.5476C174.261 82.7176 174.126 83.0476 174.126 83.5376V83.8676C174.126 84.1776 174.191 84.4126 174.321 84.5726C174.451 84.7226 174.631 84.8226 174.861 84.8726C175.101 84.9226 175.376 84.9476 175.686 84.9476H176.826C177.556 84.9476 178.121 85.1176 178.521 85.4576C178.921 85.7976 179.121 86.2876 179.121 86.9276V87.4826C179.121 88.0226 178.996 88.4426 178.746 88.7426C178.506 89.0326 178.171 89.2376 177.741 89.3576C177.321 89.4676 176.826 89.5226 176.256 89.5226Z" fill="white"/>
<path d="M180.546 89.4326V77.9876H181.731V82.3076C182.101 82.0376 182.541 81.8026 183.051 81.6026C183.571 81.3926 184.111 81.2876 184.671 81.2876C185.231 81.2876 185.691 81.4076 186.051 81.6476C186.421 81.8876 186.691 82.2126 186.861 82.6226C187.041 83.0326 187.131 83.4876 187.131 83.9876V89.4326H185.946V84.1076C185.946 83.7676 185.876 83.4676 185.736 83.2076C185.606 82.9476 185.416 82.7426 185.166 82.5926C184.916 82.4426 184.616 82.3676 184.266 82.3676C183.936 82.3676 183.631 82.4026 183.351 82.4726C183.071 82.5326 182.801 82.6226 182.541 82.7426C182.281 82.8526 182.011 82.9876 181.731 83.1476V89.4326H180.546Z" fill="white"/>
<path d="M189.094 79.9976C188.934 79.9976 188.854 79.9176 188.854 79.7576V78.5876C188.854 78.4276 188.934 78.3476 189.094 78.3476H189.934C190.014 78.3476 190.069 78.3726 190.099 78.4226C190.139 78.4626 190.159 78.5176 190.159 78.5876V79.7576C190.159 79.9176 190.084 79.9976 189.934 79.9976H189.094ZM188.914 89.4326V81.4226H190.099V89.4326H188.914Z" fill="white"/>
<path d="M191.936 89.4326V81.4226H192.866L193.121 82.3076C193.501 82.0376 193.946 81.8026 194.456 81.6026C194.966 81.3926 195.496 81.2876 196.046 81.2876C196.636 81.2876 197.111 81.4126 197.471 81.6626C197.831 81.9126 198.096 82.2426 198.266 82.6526C198.436 83.0626 198.521 83.5076 198.521 83.9876V89.4326H197.336V84.1226C197.336 83.7826 197.266 83.4826 197.126 83.2226C196.996 82.9526 196.806 82.7426 196.556 82.5926C196.316 82.4426 196.016 82.3676 195.656 82.3676C195.326 82.3676 195.016 82.4026 194.726 82.4726C194.446 82.5326 194.176 82.6226 193.916 82.7426C193.666 82.8526 193.401 82.9876 193.121 83.1476V89.4326H191.936Z" fill="white"/>
<path d="M202.269 93.1076C201.749 93.1076 201.289 93.0326 200.889 92.8826C200.499 92.7426 200.189 92.5226 199.959 92.2226C199.739 91.9326 199.629 91.5676 199.629 91.1276V90.7676C199.629 90.3076 199.754 89.9226 200.004 89.6126C200.264 89.3026 200.589 89.0726 200.979 88.9226C201.369 88.7626 201.769 88.6826 202.179 88.6826L202.479 89.1626C202.179 89.1626 201.899 89.2126 201.639 89.3126C201.379 89.4026 201.164 89.5526 200.994 89.7626C200.834 89.9726 200.754 90.2426 200.754 90.5726V90.9026C200.754 91.3826 200.914 91.7226 201.234 91.9226C201.554 92.1326 201.989 92.2376 202.539 92.2376H204.399C204.999 92.2376 205.469 92.1226 205.809 91.8926C206.159 91.6626 206.334 91.3026 206.334 90.8126V90.5126C206.334 90.2326 206.279 89.9926 206.169 89.7926C206.059 89.5926 205.874 89.4376 205.614 89.3276C205.364 89.2176 205.009 89.1626 204.549 89.1626H202.134C201.514 89.1626 201.029 89.0326 200.679 88.7726C200.339 88.5026 200.169 88.1576 200.169 87.7376C200.169 87.3376 200.284 87.0226 200.514 86.7926C200.754 86.5626 201.089 86.4026 201.519 86.3126C201.149 86.1626 200.859 85.9626 200.649 85.7126C200.439 85.4526 200.294 85.1776 200.214 84.8876C200.134 84.5876 200.094 84.2876 200.094 83.9876C200.094 83.3676 200.219 82.8676 200.469 82.4876C200.719 82.1076 201.074 81.8326 201.534 81.6626C202.004 81.4926 202.554 81.4076 203.184 81.4076H207.459V82.0826L205.659 82.2326C205.789 82.3226 205.934 82.4426 206.094 82.5926C206.254 82.7326 206.389 82.9376 206.499 83.2076C206.619 83.4676 206.679 83.8276 206.679 84.2876C206.679 84.6976 206.589 85.0876 206.409 85.4576C206.239 85.8276 205.949 86.1326 205.539 86.3726C205.129 86.6026 204.564 86.7176 203.844 86.7176H202.569C202.149 86.7176 201.814 86.7826 201.564 86.9126C201.324 87.0326 201.204 87.2526 201.204 87.5726C201.204 87.8126 201.294 87.9826 201.474 88.0826C201.654 88.1826 201.844 88.2326 202.044 88.2326H204.699C205.319 88.2326 205.829 88.3126 206.229 88.4726C206.639 88.6326 206.944 88.8776 207.144 89.2076C207.354 89.5276 207.459 89.9376 207.459 90.4376V90.7676C207.459 91.4976 207.209 92.0676 206.709 92.4776C206.219 92.8976 205.484 93.1076 204.504 93.1076H202.269ZM202.824 85.8026H203.724C204.234 85.8026 204.619 85.7276 204.879 85.5776C205.149 85.4176 205.334 85.2126 205.434 84.9626C205.534 84.7126 205.584 84.4426 205.584 84.1526C205.584 83.7026 205.509 83.3476 205.359 83.0876C205.219 82.8176 205.019 82.6276 204.759 82.5176C204.499 82.3976 204.199 82.3376 203.859 82.3376H203.004C202.434 82.3376 201.984 82.4676 201.654 82.7276C201.334 82.9776 201.174 83.4176 201.174 84.0476C201.174 84.6676 201.319 85.1176 201.609 85.3976C201.909 85.6676 202.314 85.8026 202.824 85.8026Z" fill="white"/>
<path d="M208.707 90.6026C208.607 90.6026 208.517 90.5926 208.437 90.5726C208.367 90.5626 208.332 90.5576 208.332 90.5576V90.1826C208.442 90.1826 208.522 90.1626 208.572 90.1226C208.622 90.0926 208.647 90.0276 208.647 89.9276V89.3576H208.527C208.467 89.3576 208.412 89.3376 208.362 89.2976C208.312 89.2576 208.287 89.1976 208.287 89.1176V88.0376C208.287 87.8576 208.367 87.7676 208.527 87.7676H209.172C209.272 87.7676 209.337 87.7926 209.367 87.8426C209.397 87.8926 209.412 87.9576 209.412 88.0376V89.8676C209.412 90.0676 209.372 90.2226 209.292 90.3326C209.222 90.4426 209.132 90.5126 209.022 90.5426C208.922 90.5826 208.817 90.6026 208.707 90.6026Z" fill="white"/>
<path d="M214.643 89.4326V81.4226H215.543L215.828 82.8176C216.188 82.3876 216.588 82.0326 217.028 81.7526C217.478 81.4726 217.993 81.3326 218.573 81.3326C218.713 81.3326 218.843 81.3376 218.963 81.3476C219.093 81.3576 219.213 81.3776 219.323 81.4076V82.6226C219.193 82.6026 219.053 82.5876 218.903 82.5776C218.753 82.5576 218.603 82.5476 218.453 82.5476C218.083 82.5476 217.753 82.5926 217.463 82.6826C217.173 82.7726 216.898 82.9076 216.638 83.0876C216.378 83.2676 216.108 83.4876 215.828 83.7476V89.4326H214.643Z" fill="white"/>
<path d="M223.435 89.5226C222.595 89.5226 221.93 89.3976 221.44 89.1476C220.96 88.8976 220.615 88.4726 220.405 87.8726C220.195 87.2726 220.09 86.4526 220.09 85.4126C220.09 84.3526 220.195 83.5276 220.405 82.9376C220.625 82.3376 220.98 81.9176 221.47 81.6776C221.96 81.4376 222.62 81.3176 223.45 81.3176C224.16 81.3176 224.735 81.3976 225.175 81.5576C225.625 81.7176 225.955 81.9926 226.165 82.3826C226.385 82.7626 226.495 83.2926 226.495 83.9726C226.495 84.4426 226.4 84.8226 226.21 85.1126C226.03 85.3926 225.765 85.5976 225.415 85.7276C225.075 85.8476 224.67 85.9076 224.2 85.9076H221.275C221.285 86.5576 221.355 87.0826 221.485 87.4826C221.615 87.8726 221.85 88.1576 222.19 88.3376C222.54 88.5076 223.05 88.5926 223.72 88.5926H226.3V89.3126C225.84 89.3726 225.39 89.4226 224.95 89.4626C224.51 89.5026 224.005 89.5226 223.435 89.5226ZM221.26 85.1276H224.11C224.56 85.1276 224.89 85.0476 225.1 84.8876C225.32 84.7176 225.43 84.4176 225.43 83.9876C225.43 83.5276 225.36 83.1726 225.22 82.9226C225.09 82.6626 224.88 82.4826 224.59 82.3826C224.31 82.2726 223.93 82.2176 223.45 82.2176C222.89 82.2176 222.45 82.3026 222.13 82.4726C221.81 82.6326 221.585 82.9226 221.455 83.3426C221.325 83.7626 221.26 84.3576 221.26 85.1276Z" fill="white"/>
<path d="M227.275 85.5776V84.5876H231.67V85.5776H227.275Z" fill="white"/>
<path d="M235.791 89.5226C234.951 89.5226 234.286 89.3976 233.796 89.1476C233.316 88.8976 232.971 88.4726 232.761 87.8726C232.551 87.2726 232.446 86.4526 232.446 85.4126C232.446 84.3526 232.551 83.5276 232.761 82.9376C232.981 82.3376 233.336 81.9176 233.826 81.6776C234.316 81.4376 234.976 81.3176 235.806 81.3176C236.516 81.3176 237.091 81.3976 237.531 81.5576C237.981 81.7176 238.311 81.9926 238.521 82.3826C238.741 82.7626 238.851 83.2926 238.851 83.9726C238.851 84.4426 238.756 84.8226 238.566 85.1126C238.386 85.3926 238.121 85.5976 237.771 85.7276C237.431 85.8476 237.026 85.9076 236.556 85.9076H233.631C233.641 86.5576 233.711 87.0826 233.841 87.4826C233.971 87.8726 234.206 88.1576 234.546 88.3376C234.896 88.5076 235.406 88.5926 236.076 88.5926H238.656V89.3126C238.196 89.3726 237.746 89.4226 237.306 89.4626C236.866 89.5026 236.361 89.5226 235.791 89.5226ZM233.616 85.1276H236.466C236.916 85.1276 237.246 85.0476 237.456 84.8876C237.676 84.7176 237.786 84.4176 237.786 83.9876C237.786 83.5276 237.716 83.1726 237.576 82.9226C237.446 82.6626 237.236 82.4826 236.946 82.3826C236.666 82.2726 236.286 82.2176 235.806 82.2176C235.246 82.2176 234.806 82.3026 234.486 82.4726C234.166 82.6326 233.941 82.9226 233.811 83.3426C233.681 83.7626 233.616 84.3576 233.616 85.1276Z" fill="white"/>
<path d="M240.397 89.4326V81.4226H241.327L241.582 82.3076C241.962 82.0376 242.407 81.8026 242.917 81.6026C243.427 81.3926 243.957 81.2876 244.507 81.2876C245.097 81.2876 245.572 81.4126 245.932 81.6626C246.292 81.9126 246.557 82.2426 246.727 82.6526C246.897 83.0626 246.982 83.5076 246.982 83.9876V89.4326H245.797V84.1226C245.797 83.7826 245.727 83.4826 245.587 83.2226C245.457 82.9526 245.267 82.7426 245.017 82.5926C244.777 82.4426 244.477 82.3676 244.117 82.3676C243.787 82.3676 243.477 82.4026 243.187 82.4726C242.907 82.5326 242.637 82.6226 242.377 82.7426C242.127 82.8526 241.862 82.9876 241.582 83.1476V89.4326H240.397Z" fill="white"/>
<path d="M250.73 93.1076C250.21 93.1076 249.75 93.0326 249.35 92.8826C248.96 92.7426 248.65 92.5226 248.42 92.2226C248.2 91.9326 248.09 91.5676 248.09 91.1276V90.7676C248.09 90.3076 248.215 89.9226 248.465 89.6126C248.725 89.3026 249.05 89.0726 249.44 88.9226C249.83 88.7626 250.23 88.6826 250.64 88.6826L250.94 89.1626C250.64 89.1626 250.36 89.2126 250.1 89.3126C249.84 89.4026 249.625 89.5526 249.455 89.7626C249.295 89.9726 249.215 90.2426 249.215 90.5726V90.9026C249.215 91.3826 249.375 91.7226 249.695 91.9226C250.015 92.1326 250.45 92.2376 251 92.2376H252.86C253.46 92.2376 253.93 92.1226 254.27 91.8926C254.62 91.6626 254.795 91.3026 254.795 90.8126V90.5126C254.795 90.2326 254.74 89.9926 254.63 89.7926C254.52 89.5926 254.335 89.4376 254.075 89.3276C253.825 89.2176 253.47 89.1626 253.01 89.1626H250.595C249.975 89.1626 249.49 89.0326 249.14 88.7726C248.8 88.5026 248.63 88.1576 248.63 87.7376C248.63 87.3376 248.745 87.0226 248.975 86.7926C249.215 86.5626 249.55 86.4026 249.98 86.3126C249.61 86.1626 249.32 85.9626 249.11 85.7126C248.9 85.4526 248.755 85.1776 248.675 84.8876C248.595 84.5876 248.555 84.2876 248.555 83.9876C248.555 83.3676 248.68 82.8676 248.93 82.4876C249.18 82.1076 249.535 81.8326 249.995 81.6626C250.465 81.4926 251.015 81.4076 251.645 81.4076H255.92V82.0826L254.12 82.2326C254.25 82.3226 254.395 82.4426 254.555 82.5926C254.715 82.7326 254.85 82.9376 254.96 83.2076C255.08 83.4676 255.14 83.8276 255.14 84.2876C255.14 84.6976 255.05 85.0876 254.87 85.4576C254.7 85.8276 254.41 86.1326 254 86.3726C253.59 86.6026 253.025 86.7176 252.305 86.7176H251.03C250.61 86.7176 250.275 86.7826 250.025 86.9126C249.785 87.0326 249.665 87.2526 249.665 87.5726C249.665 87.8126 249.755 87.9826 249.935 88.0826C250.115 88.1826 250.305 88.2326 250.505 88.2326H253.16C253.78 88.2326 254.29 88.3126 254.69 88.4726C255.1 88.6326 255.405 88.8776 255.605 89.2076C255.815 89.5276 255.92 89.9376 255.92 90.4376V90.7676C255.92 91.4976 255.67 92.0676 255.17 92.4776C254.68 92.8976 253.945 93.1076 252.965 93.1076H250.73ZM251.285 85.8026H252.185C252.695 85.8026 253.08 85.7276 253.34 85.5776C253.61 85.4176 253.795 85.2126 253.895 84.9626C253.995 84.7126 254.045 84.4426 254.045 84.1526C254.045 83.7026 253.97 83.3476 253.82 83.0876C253.68 82.8176 253.48 82.6276 253.22 82.5176C252.96 82.3976 252.66 82.3376 252.32 82.3376H251.465C250.895 82.3376 250.445 82.4676 250.115 82.7276C249.795 82.9776 249.635 83.4176 249.635 84.0476C249.635 84.6676 249.78 85.1176 250.07 85.3976C250.37 85.6676 250.775 85.8026 251.285 85.8026Z" fill="white"/>
<path d="M257.138 79.9976C256.978 79.9976 256.898 79.9176 256.898 79.7576V78.5876C256.898 78.4276 256.978 78.3476 257.138 78.3476H257.978C258.058 78.3476 258.113 78.3726 258.143 78.4226C258.183 78.4626 258.203 78.5176 258.203 78.5876V79.7576C258.203 79.9176 258.128 79.9976 257.978 79.9976H257.138ZM256.958 89.4326V81.4226H258.143V89.4326H256.958Z" fill="white"/>
<path d="M259.979 89.4326V81.4226H260.909L261.164 82.3076C261.544 82.0376 261.989 81.8026 262.499 81.6026C263.009 81.3926 263.539 81.2876 264.089 81.2876C264.679 81.2876 265.154 81.4126 265.514 81.6626C265.874 81.9126 266.139 82.2426 266.309 82.6526C266.479 83.0626 266.564 83.5076 266.564 83.9876V89.4326H265.379V84.1226C265.379 83.7826 265.309 83.4826 265.169 83.2226C265.039 82.9526 264.849 82.7426 264.599 82.5926C264.359 82.4426 264.059 82.3676 263.699 82.3676C263.369 82.3676 263.059 82.4026 262.769 82.4726C262.489 82.5326 262.219 82.6226 261.959 82.7426C261.709 82.8526 261.444 82.9876 261.164 83.1476V89.4326H259.979Z" fill="white"/>
<path d="M271.408 89.5226C270.568 89.5226 269.903 89.3976 269.413 89.1476C268.933 88.8976 268.588 88.4726 268.378 87.8726C268.168 87.2726 268.063 86.4526 268.063 85.4126C268.063 84.3526 268.168 83.5276 268.378 82.9376C268.598 82.3376 268.953 81.9176 269.443 81.6776C269.933 81.4376 270.593 81.3176 271.423 81.3176C272.133 81.3176 272.708 81.3976 273.148 81.5576C273.598 81.7176 273.928 81.9926 274.138 82.3826C274.358 82.7626 274.468 83.2926 274.468 83.9726C274.468 84.4426 274.373 84.8226 274.183 85.1126C274.003 85.3926 273.738 85.5976 273.388 85.7276C273.048 85.8476 272.643 85.9076 272.173 85.9076H269.248C269.258 86.5576 269.328 87.0826 269.458 87.4826C269.588 87.8726 269.823 88.1576 270.163 88.3376C270.513 88.5076 271.023 88.5926 271.693 88.5926H274.273V89.3126C273.813 89.3726 273.363 89.4226 272.923 89.4626C272.483 89.5026 271.978 89.5226 271.408 89.5226ZM269.233 85.1276H272.083C272.533 85.1276 272.863 85.0476 273.073 84.8876C273.293 84.7176 273.403 84.4176 273.403 83.9876C273.403 83.5276 273.333 83.1726 273.193 82.9226C273.063 82.6626 272.853 82.4826 272.563 82.3826C272.283 82.2726 271.903 82.2176 271.423 82.2176C270.863 82.2176 270.423 82.3026 270.103 82.4726C269.783 82.6326 269.558 82.9226 269.428 83.3426C269.298 83.7626 269.233 84.3576 269.233 85.1276Z" fill="white"/>
<path d="M279.073 89.5226C278.233 89.5226 277.568 89.3976 277.078 89.1476C276.598 88.8976 276.253 88.4726 276.043 87.8726C275.833 87.2726 275.728 86.4526 275.728 85.4126C275.728 84.3526 275.833 83.5276 276.043 82.9376C276.263 82.3376 276.618 81.9176 277.108 81.6776C277.598 81.4376 278.258 81.3176 279.088 81.3176C279.798 81.3176 280.373 81.3976 280.813 81.5576C281.263 81.7176 281.593 81.9926 281.803 82.3826C282.023 82.7626 282.133 83.2926 282.133 83.9726C282.133 84.4426 282.038 84.8226 281.848 85.1126C281.668 85.3926 281.403 85.5976 281.053 85.7276C280.713 85.8476 280.308 85.9076 279.838 85.9076H276.913C276.923 86.5576 276.993 87.0826 277.123 87.4826C277.253 87.8726 277.488 88.1576 277.828 88.3376C278.178 88.5076 278.688 88.5926 279.358 88.5926H281.938V89.3126C281.478 89.3726 281.028 89.4226 280.588 89.4626C280.148 89.5026 279.643 89.5226 279.073 89.5226ZM276.898 85.1276H279.748C280.198 85.1276 280.528 85.0476 280.738 84.8876C280.958 84.7176 281.068 84.4176 281.068 83.9876C281.068 83.5276 280.998 83.1726 280.858 82.9226C280.728 82.6626 280.518 82.4826 280.228 82.3826C279.948 82.2726 279.568 82.2176 279.088 82.2176C278.528 82.2176 278.088 82.3026 277.768 82.4726C277.448 82.6326 277.223 82.9226 277.093 83.3426C276.963 83.7626 276.898 84.3576 276.898 85.1276Z" fill="white"/>
<path d="M283.678 89.4326V81.4226H284.578L284.863 82.8176C285.223 82.3876 285.623 82.0326 286.063 81.7526C286.513 81.4726 287.028 81.3326 287.608 81.3326C287.748 81.3326 287.878 81.3376 287.998 81.3476C288.128 81.3576 288.248 81.3776 288.358 81.4076V82.6226C288.228 82.6026 288.088 82.5876 287.938 82.5776C287.788 82.5576 287.638 82.5476 287.488 82.5476C287.118 82.5476 286.788 82.5926 286.498 82.6826C286.208 82.7726 285.933 82.9076 285.673 83.0876C285.413 83.2676 285.143 83.4876 284.863 83.7476V89.4326H283.678Z" fill="white"/>
<path d="M292.47 89.5226C291.63 89.5226 290.965 89.3976 290.475 89.1476C289.995 88.8976 289.65 88.4726 289.44 87.8726C289.23 87.2726 289.125 86.4526 289.125 85.4126C289.125 84.3526 289.23 83.5276 289.44 82.9376C289.66 82.3376 290.015 81.9176 290.505 81.6776C290.995 81.4376 291.655 81.3176 292.485 81.3176C293.195 81.3176 293.77 81.3976 294.21 81.5576C294.66 81.7176 294.99 81.9926 295.2 82.3826C295.42 82.7626 295.53 83.2926 295.53 83.9726C295.53 84.4426 295.435 84.8226 295.245 85.1126C295.065 85.3926 294.8 85.5976 294.45 85.7276C294.11 85.8476 293.705 85.9076 293.235 85.9076H290.31C290.32 86.5576 290.39 87.0826 290.52 87.4826C290.65 87.8726 290.885 88.1576 291.225 88.3376C291.575 88.5076 292.085 88.5926 292.755 88.5926H295.335V89.3126C294.875 89.3726 294.425 89.4226 293.985 89.4626C293.545 89.5026 293.04 89.5226 292.47 89.5226ZM290.295 85.1276H293.145C293.595 85.1276 293.925 85.0476 294.135 84.8876C294.355 84.7176 294.465 84.4176 294.465 83.9876C294.465 83.5276 294.395 83.1726 294.255 82.9226C294.125 82.6626 293.915 82.4826 293.625 82.3826C293.345 82.2726 292.965 82.2176 292.485 82.2176C291.925 82.2176 291.485 82.3026 291.165 82.4726C290.845 82.6326 290.62 82.9226 290.49 83.3426C290.36 83.7626 290.295 84.3576 290.295 85.1276Z" fill="white"/>
<path d="M299.67 89.5226C299.01 89.5226 298.465 89.3826 298.035 89.1026C297.615 88.8126 297.3 88.3726 297.09 87.7826C296.89 87.1826 296.79 86.4176 296.79 85.4876C296.79 84.4976 296.89 83.6976 297.09 83.0876C297.29 82.4676 297.61 82.0176 298.05 81.7376C298.49 81.4576 299.08 81.3176 299.82 81.3176C300.27 81.3176 300.71 81.3676 301.14 81.4676C301.57 81.5676 301.95 81.6776 302.28 81.7976V77.9876H303.465V89.4326H302.505L302.28 88.6226C302.13 88.7526 301.905 88.8876 301.605 89.0276C301.315 89.1676 300.995 89.2876 300.645 89.3876C300.305 89.4776 299.98 89.5226 299.67 89.5226ZM300.015 88.5476C300.475 88.5476 300.89 88.4776 301.26 88.3376C301.64 88.1876 301.98 88.0326 302.28 87.8726V82.6376C301.92 82.5276 301.575 82.4376 301.245 82.3676C300.915 82.2876 300.545 82.2476 300.135 82.2476C299.625 82.2476 299.21 82.3426 298.89 82.5326C298.57 82.7226 298.335 83.0526 298.185 83.5226C298.045 83.9826 297.975 84.6226 297.975 85.4426C297.975 86.1826 298.04 86.7826 298.17 87.2426C298.31 87.7026 298.53 88.0376 298.83 88.2476C299.13 88.4476 299.525 88.5476 300.015 88.5476Z" fill="white"/>
<path d="M305.283 89.4476C305.123 89.4476 305.043 89.3676 305.043 89.2076V88.0076C305.043 87.8476 305.123 87.7676 305.283 87.7676H305.943C306.103 87.7676 306.183 87.8476 306.183 88.0076V89.2076C306.183 89.2876 306.158 89.3476 306.108 89.3876C306.068 89.4276 306.013 89.4476 305.943 89.4476H305.283Z" fill="white"/>
</svg>
