<svg version="1.2" xmlns="http://www.w3.org/2000/svg" viewBox="0 0 1080 1080" width="1080" height="1080">
	<style>
		.s0 { fill: #724a88 } 
		.s1 { fill: #a6388c } 
	</style>
	<g id="Camada 1">
		<g id="&lt;Group&gt;">
			<path id="Publishing, re-engineered.
" class="s0" aria-label="Publishing, re-engineered."  d="m526.8 562.2h-1.8v4.1h1.8q1.1 0 1.7-0.5 0.5-0.5 0.5-1.5 0-1-0.5-1.6-0.6-0.5-1.7-0.5zm-3.3 9.8v-11h3.3q1.9 0 2.8 0.8 1 0.9 1 2.5 0 1.6-1 2.4-0.9 0.9-2.8 0.9h-1.8v4.4zm7.8-3.3v-5h1.3v5q0 1.2 0.5 1.8 0.4 0.5 1.4 0.5 1.1 0 1.7-0.7 0.6-0.7 0.6-1.9v-4.7h1.4v8.3h-1.4v-1.3q-0.5 0.8-1.1 1.2-0.7 0.3-1.5 0.3-1.4 0-2.2-0.9-0.7-0.9-0.7-2.6zm3.4-5.2zm11.6 4.4q0-1.5-0.6-2.4-0.6-0.8-1.7-0.8-1 0-1.7 0.8-0.6 0.9-0.6 2.4 0 1.5 0.6 2.3 0.7 0.9 1.7 0.9 1.1 0 1.7-0.9 0.6-0.8 0.6-2.3zm-4.6-7.4v4.5q0.5-0.7 1.1-1.1 0.7-0.4 1.6-0.4 1.5 0 2.4 1.2 1 1.2 1 3.2 0 1.9-1 3.1-0.9 1.2-2.4 1.2-0.9 0-1.6-0.3-0.6-0.4-1.1-1.1v1.2h-1.3v-11.5zm7.6 11.5v-11.5h1.4v11.5zm4 0v-8.3h1.4v8.3zm0-9.8v-1.7h1.3v1.7zm9.3 1.8v1.3q-0.6-0.3-1.2-0.5-0.6-0.1-1.3-0.1-1 0-1.5 0.3-0.5 0.3-0.5 0.9 0 0.5 0.4 0.8 0.3 0.2 1.4 0.5l0.5 0.1q1.4 0.3 2 0.8 0.6 0.6 0.6 1.6 0 1.2-0.9 1.8-0.9 0.7-2.5 0.7-0.6 0-1.4-0.1-0.7-0.1-1.5-0.4v-1.4q0.8 0.4 1.5 0.6 0.7 0.2 1.4 0.2 1 0 1.5-0.3 0.5-0.4 0.5-1 0-0.5-0.3-0.8-0.4-0.3-1.7-0.6l-0.4-0.1q-1.3-0.3-1.9-0.8-0.5-0.6-0.5-1.5 0-1.2 0.8-1.8 0.8-0.7 2.3-0.7 0.8 0 1.5 0.1 0.6 0.2 1.2 0.4zm8.6 3v5h-1.4v-4.9q0-1.2-0.4-1.8-0.5-0.6-1.4-0.6-1.1 0-1.7 0.7-0.7 0.7-0.7 1.9v4.7h-1.3v-11.5h1.3v4.5q0.5-0.7 1.2-1.1 0.6-0.4 1.5-0.4 1.4 0 2.2 0.9 0.7 0.9 0.7 2.6zm2.1 5v-8.3h1.4v8.3zm0-9.8v-1.7h1.3v1.7zm9.9 4.8v5h-1.3v-4.9q0-1.2-0.5-1.8-0.5-0.6-1.4-0.6-1.1 0-1.7 0.7-0.6 0.7-0.6 1.9v4.7h-1.4v-8.3h1.4v1.3q0.4-0.7 1.1-1.1 0.7-0.4 1.5-0.4 1.4 0 2.2 0.9 0.7 0.9 0.7 2.6zm7.6 0.8q0-1.5-0.6-2.3-0.6-0.8-1.7-0.8-1.1 0-1.7 0.8-0.7 0.8-0.7 2.3 0 1.4 0.7 2.3 0.6 0.8 1.7 0.8 1.1 0 1.7-0.8 0.6-0.9 0.6-2.3zm1.3-4.1v7.3q0 2.1-0.9 3.1-0.9 1-2.9 1-0.7 0-1.3-0.1-0.7-0.1-1.3-0.3v-1.3q0.6 0.3 1.2 0.5 0.6 0.1 1.2 0.1 1.3 0 2-0.7 0.7-0.7 0.7-2.1v-0.7q-0.4 0.8-1.1 1.1-0.7 0.4-1.6 0.4-1.5 0-2.4-1.2-1-1.1-1-3 0-1.9 1-3.1 0.9-1.2 2.4-1.2 0.9 0 1.6 0.4 0.7 0.4 1.1 1.1v-1.3zm2.5 7.7v-1.3h1.6v1.3l-1.2 2.4h-1zm13.5-7.8v1.4q-0.3-0.2-0.5-0.2-0.3-0.1-0.6-0.1-1.2 0-1.8 0.8-0.6 0.7-0.6 2.1v4.4h-1.4v-8.3h1.4v1.3q0.4-0.8 1.1-1.1 0.7-0.4 1.7-0.4 0.1 0 0.3 0 0.2 0 0.4 0.1zm7.2 3.9v0.7h-6.2q0.1 1.4 0.8 2.1 0.8 0.7 2.2 0.7 0.7 0 1.5-0.2 0.7-0.2 1.4-0.5v1.2q-0.7 0.4-1.5 0.5-0.7 0.2-1.5 0.2-2 0-3.2-1.2-1.1-1.1-1.1-3.1 0-2 1.1-3.2 1.1-1.2 2.9-1.2 1.7 0 2.7 1.1 0.9 1 0.9 2.9zm-6.2-0.4h4.9q0-1.1-0.6-1.8-0.6-0.7-1.6-0.7-1.2 0-1.9 0.7-0.7 0.6-0.8 1.8zm7.5 1.3v-1.2h4v1.2zm12.7-0.9v0.7h-6.2q0.1 1.4 0.8 2.1 0.8 0.7 2.1 0.7 0.8 0 1.5-0.2 0.8-0.2 1.5-0.5v1.2q-0.7 0.4-1.5 0.5-0.8 0.2-1.6 0.2-1.9 0-3.1-1.2-1.1-1.1-1.1-3.1 0-2 1.1-3.2 1.1-1.2 2.9-1.2 1.7 0 2.6 1.1 1 1 1 2.9zm-6.2-0.4h4.9q-0.1-1.1-0.7-1.8-0.6-0.7-1.6-0.7-1.1 0-1.8 0.7-0.7 0.6-0.8 1.8zm14-0.1v5h-1.3v-5q0-1.2-0.5-1.7-0.5-0.6-1.4-0.6-1.1 0-1.7 0.7-0.6 0.7-0.6 1.9v4.7h-1.4v-8.3h1.4v1.3q0.5-0.8 1.1-1.1 0.7-0.4 1.5-0.4 1.5 0 2.2 0.9 0.7 0.9 0.7 2.6zm7.6 0.7q0-1.4-0.6-2.3-0.6-0.8-1.7-0.8-1.1 0-1.7 0.8-0.6 0.9-0.6 2.3 0 1.5 0.6 2.3 0.6 0.8 1.7 0.8 1.1 0 1.7-0.8 0.6-0.8 0.6-2.3zm1.3-4v7.2q0 2.1-0.9 3.2-0.9 1-2.9 1-0.7 0-1.3-0.1-0.6-0.1-1.2-0.3v-1.4q0.6 0.4 1.1 0.5 0.6 0.2 1.2 0.2 1.4 0 2-0.7 0.7-0.7 0.7-2.1v-0.7q-0.4 0.7-1.1 1.1-0.6 0.4-1.6 0.4-1.5 0-2.4-1.2-0.9-1.2-0.9-3.1 0-1.9 0.9-3 0.9-1.2 2.4-1.2 1 0 1.6 0.4 0.7 0.3 1.1 1.1v-1.3zm2.2 8.3v-8.3h1.4v8.3zm0-9.8v-1.7h1.3v1.7zm10.9 4.8v5h-1.4v-5q0-1.2-0.4-1.7-0.5-0.6-1.4-0.6-1.1 0-1.7 0.7-0.7 0.7-0.7 1.9v4.7h-1.3v-8.3h1.3v1.3q0.5-0.8 1.2-1.1 0.6-0.4 1.5-0.4 1.4 0 2.1 0.9 0.8 0.9 0.8 2.6zm9.2 0.5v0.7h-6.3q0.1 1.4 0.9 2.1 0.7 0.7 2.1 0.7 0.8 0 1.5-0.2 0.7-0.2 1.5-0.5v1.2q-0.8 0.4-1.5 0.5-0.8 0.2-1.6 0.2-2 0-3.1-1.2-1.2-1.1-1.2-3.1 0-2 1.1-3.2 1.1-1.2 3-1.2 1.6 0 2.6 1.1 1 1 1 2.9zm-6.2-0.4h4.8q0-1.1-0.6-1.8-0.6-0.7-1.6-0.7-1.2 0-1.8 0.7-0.7 0.6-0.8 1.8zm15.2 0.4v0.7h-6.3q0.1 1.4 0.9 2.1 0.7 0.7 2.1 0.7 0.8 0 1.5-0.2 0.7-0.2 1.5-0.5v1.2q-0.8 0.4-1.5 0.5-0.8 0.2-1.6 0.2-2 0-3.1-1.2-1.2-1.1-1.2-3.1 0-2 1.1-3.2 1.1-1.2 3-1.2 1.6 0 2.6 1.1 1 1 1 2.9zm-6.2-0.4h4.8q0-1.1-0.6-1.8-0.6-0.7-1.6-0.7-1.2 0-1.8 0.7-0.7 0.6-0.8 1.8zm11.9-3.5v1.4q-0.2-0.2-0.5-0.2-0.3-0.1-0.6-0.1-1.1 0-1.8 0.8-0.6 0.7-0.6 2.1v4.4h-1.3v-8.3h1.3v1.3q0.5-0.8 1.1-1.1 0.7-0.4 1.7-0.4 0.1 0 0.3 0 0.2 0 0.4 0.1zm7.3 3.9v0.7h-6.3q0.1 1.4 0.9 2.1 0.7 0.7 2.1 0.7 0.8 0 1.5-0.2 0.7-0.2 1.5-0.5v1.2q-0.8 0.4-1.5 0.5-0.8 0.2-1.6 0.2-2 0-3.1-1.2-1.2-1.1-1.2-3.1 0-2 1.1-3.2 1.1-1.2 3-1.2 1.6 0 2.6 1.1 1 1 1 2.9zm-6.2-0.4h4.8q0-1.1-0.6-1.8-0.6-0.7-1.6-0.7-1.2 0-1.8 0.7-0.7 0.6-0.8 1.8zm13.5-2.1v-4.5h1.4v11.5h-1.4v-1.3q-0.4 0.8-1 1.1-0.7 0.4-1.6 0.4-1.5 0-2.4-1.2-1-1.2-1-3.2 0-1.9 1-3.1 0.9-1.2 2.4-1.2 0.9 0 1.6 0.4 0.6 0.3 1 1.1zm-4.6 2.8q0 1.5 0.6 2.4 0.7 0.8 1.7 0.8 1.1 0 1.7-0.8 0.6-0.9 0.6-2.4 0-1.5-0.6-2.3-0.6-0.9-1.7-0.9-1 0-1.7 0.9-0.6 0.8-0.6 2.3zm8.4 4.2v-1.9h1.6v1.9z"/>
			<g id="&lt;Group&gt;">
				<path id="&lt;Path&gt;" class="s1" d="m454.2 480.63c5.23-0.71 8.95 4.76 6.41 9.38-1.09 1.98-3.21 2.58-4.71 4.23-6.46 7.12-0.58 18.89 9.02 18.11 3.92-0.32 6.08-3.87 10.29-1.51 3.1 1.74 3.87 6.04 1.63 8.8-0.81 0.99-1.88 1.51-2.95 2.17-18.99 11.66-38.91 22.02-58.17 33.19-26.54 9.08-43.5-26.08-19.13-41.29 18.18-11.34 37.38-21.16 55.61-32.43 0.61-0.24 1.36-0.56 2-0.65z"/>
				<path id="&lt;Compound Path&gt;" fill-rule="evenodd" class="s1" d="m482.51 521.67c21.92-1.6 32.88 25.76 16.35 40.16-19.37 12.21-39.55 23.2-59.24 34.93-6.07 2.75-11.19-2.44-8.3-8.63 0.99-2.13 2.91-2.48 4.39-4.05 6.94-7.36 0.1-19.98-9.97-18.08-3.32 0.63-5.09 3.2-8.79 1.25-3.66-1.92-4.6-6.46-1.44-9.32 18.91-11.5 38.39-22.15 57.49-33.36 2.94-1.6 6.16-2.66 9.51-2.9zm-33.56 57.36l41.1-23.86c13.04-8.39 3.94-27.03-10.36-22.1l-42.41 24.28 3.8 2.66c5.61 4.64 8.42 11.75 7.87 19.02z"/>
			</g>
			<path id="KlooBR
" class="s1" aria-label="KlooBR"  d="m524.8 555v-38h9.8v13.9l14.1-13.9h11.4l-18.3 18 20.2 20h-12.3l-15.1-15v15zm37.6 0v-39.6h9.1v39.6zm29.6-22.7q-3.1 0-4.7 2.2-1.5 2.2-1.5 6.3 0 4.1 1.5 6.3 1.6 2.1 4.7 2.1 2.9 0 4.5-2.1 1.6-2.2 1.6-6.3 0-4.1-1.6-6.3-1.6-2.2-4.5-2.2zm0-6.5q7.3 0 11.4 4 4.2 3.9 4.2 11 0 7-4.2 11-4.1 3.9-11.4 3.9-7.4 0-11.6-3.9-4.1-4-4.1-11 0-7.1 4.1-11 4.2-4 11.6-4zm34 6.5q-3.1 0-4.7 2.2-1.5 2.2-1.5 6.3 0 4.1 1.5 6.3 1.6 2.1 4.7 2.1 2.9 0 4.5-2.1 1.6-2.2 1.6-6.3 0-4.1-1.6-6.3-1.6-2.2-4.5-2.2zm0-6.5q7.3 0 11.4 4 4.2 3.9 4.2 11 0 7-4.2 11-4.1 3.9-11.4 3.9-7.4 0-11.6-3.9-4.1-4-4.1-11 0-7.1 4.1-11 4.2-4 11.6-4zm30.6 5.9h5.4q2.3 0 3.5-1 1.2-1 1.2-3 0-2-1.2-3-1.2-1-3.5-1h-5.4zm0 16.6h5.8q2.9 0 4.4-1.3 1.5-1.2 1.5-3.7 0-2.5-1.5-3.7-1.5-1.3-4.4-1.3h-5.8zm14.9-13.6q3.1 0.9 4.9 3.3 1.7 2.5 1.7 6.1 0 5.5-3.7 8.2-3.7 2.7-11.3 2.7h-16.3v-38h14.7q7.9 0 11.5 2.4 3.5 2.4 3.5 7.6 0 2.8-1.3 4.8-1.3 1.9-3.7 2.9zm22.1-0.9h4.1q3.1 0 4.4-1.1 1.4-1.1 1.4-3.8 0-2.6-1.4-3.7-1.3-1.1-4.4-1.1h-4.1zm2.8 6.8h-2.8v14.4h-9.8v-38.1h15q7.5 0 11 2.6 3.5 2.5 3.5 7.9 0 3.8-1.9 6.2-1.8 2.4-5.4 3.6 2 0.4 3.6 2.1 1.6 1.6 3.2 4.9l5.3 10.8h-10.4l-4.7-9.5q-1.4-2.8-2.8-3.9-1.4-1-3.8-1z"/>
		</g>
	</g>
</svg>